<svg xmlns="http://www.w3.org/2000/svg" viewBox="0 0 1200 900" role="img" aria-label="Abstract metallic microstructure">
  <defs>
    <linearGradient id="bg" x1="0" x2="1" y1="0" y2="1">
      <stop offset="0" stop-color="#eef3f5"/>
      <stop offset="0.45" stop-color="#9fb3bc"/>
      <stop offset="1" stop-color="#2a3a45"/>
    </linearGradient>
    <linearGradient id="grainA" x1="0" x2="1" y1="0" y2="1">
      <stop offset="0" stop-color="#f6f2e8"/>
      <stop offset="1" stop-color="#b9c7cc"/>
    </linearGradient>
    <linearGradient id="grainB" x1="1" x2="0" y1="0" y2="1">
      <stop offset="0" stop-color="#d0a24a"/>
      <stop offset="1" stop-color="#7f9aa3"/>
    </linearGradient>
    <filter id="soft">
      <feGaussianBlur stdDeviation="18"/>
    </filter>
  </defs>
  <rect width="1200" height="900" fill="url(#bg)"/>
  <g opacity="0.34" filter="url(#soft)">
    <circle cx="230" cy="180" r="150" fill="#ffffff"/>
    <circle cx="920" cy="690" r="230" fill="#0a6c74"/>
    <circle cx="900" cy="130" r="190" fill="#b12d2d"/>
  </g>
  <g stroke="#1b2832" stroke-width="5" stroke-linejoin="round" opacity="0.58">
    <path fill="url(#grainA)" d="M0 74 164 0 343 89 295 247 98 257z"/>
    <path fill="url(#grainB)" d="M343 89 528 0 689 154 576 306 295 247z"/>
    <path fill="#dfe8ec" d="M689 154 930 48 1200 113 1200 310 964 348 783 278z"/>
    <path fill="#9db0b8" d="M98 257 295 247 386 449 210 598 0 540 0 316z"/>
    <path fill="#f1ead9" d="M295 247 576 306 594 514 386 449z"/>
    <path fill="#bfcbd0" d="M576 306 783 278 964 348 878 568 594 514z"/>
    <path fill="#7e98a2" d="M964 348 1200 310 1200 629 1014 704 878 568z"/>
    <path fill="#c99539" d="M210 598 386 449 594 514 621 734 432 900 188 900z"/>
    <path fill="#e6edf0" d="M594 514 878 568 1014 704 896 900 621 734z"/>
    <path fill="#536b78" d="M0 540 210 598 188 900 0 900z"/>
    <path fill="#2f4654" d="M1014 704 1200 629 1200 900 896 900z"/>
  </g>
  <g stroke="#ffffff" stroke-width="2" opacity="0.34">
    <path d="M164 0 98 257 386 449 432 900"/>
    <path d="M528 0 576 306 878 568 896 900"/>
    <path d="M930 48 783 278 594 514 621 734"/>
    <path d="M0 316 295 247 689 154 1200 113"/>
  </g>
  <g opacity="0.75">
    <circle cx="376" cy="290" r="10" fill="#b12d2d"/>
    <circle cx="612" cy="390" r="7" fill="#b12d2d"/>
    <circle cx="824" cy="510" r="9" fill="#b12d2d"/>
    <circle cx="514" cy="668" r="8" fill="#b12d2d"/>
  </g>
</svg>
